<?xml version="1.0" standalone="no"?>
<!DOCTYPE svg PUBLIC "-//W3C//DTD SVG 20010904//EN"
 "http://www.w3.org/TR/2001/REC-SVG-20010904/DTD/svg10.dtd">
<svg version="1.0" xmlns="http://www.w3.org/2000/svg"
 width="240.000000pt" height="240.000000pt" viewBox="0 0 240.000000 240.000000"
 preserveAspectRatio="xMidYMid meet">
<metadata>
Created by potrace 1.14, written by Peter Selinger 2001-2017
</metadata>
<g transform="translate(0.000000,240.000000) scale(0.100000,-0.100000)"
fill="#000000" stroke="none">
<path d="M1644 2252 c-157 -54 -333 -258 -404 -467 l-17 -50 -89 -7 c-188 -14
-356 -92 -508 -237 -125 -120 -218 -279 -263 -450 -22 -80 -26 -119 -26 -231
0 -119 3 -144 26 -215 80 -242 301 -404 622 -456 131 -21 391 -16 513 10 303
64 482 218 549 471 27 103 23 299 -10 421 -25 97 -85 227 -140 309 -45 66
-153 176 -222 226 -72 51 -187 108 -256 125 -27 7 -49 18 -49 24 0 26 70 102
118 128 28 15 100 38 161 52 125 27 177 51 214 95 98 116 19 271 -138 270 -16
-1 -53 -9 -81 -18z m-626 -1021 c39 -27 67 -97 58 -146 -16 -81 -104 -137
-184 -116 -61 17 -112 83 -112 145 0 39 43 108 80 128 45 24 115 20 158 -11z
m515 16 c18 -8 38 -21 45 -29 10 -12 3 -11 -27 4 -34 17 -46 18 -75 8 -70 -23
-89 -108 -37 -161 41 -41 91 -40 133 1 26 26 30 36 26 75 -4 57 13 41 19 -17
9 -75 -47 -148 -122 -162 -88 -17 -186 81 -169 168 17 95 118 150 207 113z"/>
<path d="M922 1225 c-64 -28 -75 -114 -20 -160 42 -35 91 -34 129 4 39 40 40
89 2 130 -34 37 -68 45 -111 26z"/>
</g>
</svg>
